<svg width="200" height="200" viewBox="0 0 100 100" fill="none" xmlns="http://www.w3.org/2000/svg">
  <g stroke="#E5E7EB" stroke-width="4" stroke-linecap="round" stroke-linejoin="round">
    
    <!-- Подставка -->
    <path d="M30 85 Q 50 95, 70 85" />
    <line x1="50" y1="85" x2="50" y2="75" />
    
    <!-- Дуга держателя -->
    <path d="M35 75 Q 25 50, 35 25" />
    <path d="M65 75 Q 75 50, 65 25" />
    
    <!-- Шар глобуса -->
    <circle cx="50" cy="50" r="25" />
    
    <!-- Материки -->
    <path d="M38 40 Q 45 35, 52 38 T 62 40" />
    <path d="M35 50 Q 45 47, 52 50 T 65 48" />
    <path d="M42 62 Q 50 58, 58 62" />
    
    <!-- Экватор -->
    <path d="M28 50 Q 50 55, 72 50" stroke-dasharray="3 3" opacity="0.7" />
    
    <!-- Линии долготы -->
    <line x1="50" y1="25" x2="50" y2="75" opacity="0.5" />
    <path d="M40 32 Q 37 50, 40 68" opacity="0.5" />
    <path d="M60 32 Q 63 50, 60 68" opacity="0.5" />
    
  </g>
</svg>