
<?xml-stylesheet href="../svg-map.css" type="text/css"?>
<svg xmlns="http://www.w3.org/2000/svg"
     width="100%"
     height="100%"
     viewBox="-10 -90 1074 1030">

    <defs>
        <style type="text/css">
            <![CDATA[
            .area,
            .city {
                stroke-width: 3.3;
                 fill: #e6e6e6;   /* цвет региона */
    stroke: #ffffff; /* границы */
            }
            ]]>
        </style>
    </defs>

    <g>
        <path id="190"
              class="area"
              d="M 921.92578 296.91992 L 910.57227 298 L 801.54883 321.60742 L 779.92578 330.4375 L 766.95117 338.00586 L 718.65625 362.15234 L 707.84375 368.2793 L 695.35156 369.59375 L 693.74219 369.25391 L 693.74219 351.06641 L 693.42969 351.06641 L 684.02344 369.47266 L 662.74219 374.97266 L 632.55469 341.97266 L 606.67969 338.87891 L 580.46094 324.75391 L 579.64844 324.75391 L 574.58594 339.37891 L 566.30469 347.66016 L 560.61719 353.34766 L 551.30469 350.25391 L 546.64844 355.41016 C 542.74084 359.30006 543.29199 361.70189 541.99219 364.72266 L 540.96094 371.47266 C 519.49136 370.88425 505.20796 363.48856 492.42969 354.69141 L 492.46094 354.56641 L 490.14844 353.56641 L 490.14844 354.75391 L 487.14844 358.75391 L 521.14844 397.75391 L 554.14844 441.75391 C 561.29813 454.50901 565.34534 466.29462 565.14844 476.75391 L 579.14844 502.75391 L 630.08594 626.59766 C 630.12774 626.56726 630.16934 626.53421 630.21094 626.50391 L 637.30469 639.72266 L 655.21094 619.72266 C 658.23463 616.59354 661.38424 613.7414 665.21094 612.37891 L 681.21094 607.72266 C 684.99473 606.30829 688.74704 604.73625 692.21094 601.72266 C 700.02183 596.41818 705.63904 590.67493 710.21094 584.72266 L 741 523 L 750 523 L 771 501 L 770.92578 500.86914 L 770.98438 500.88281 L 774.48828 498.08008 L 776.78125 496.61523 L 779.1875 495.94531 L 781.28125 496.08203 L 782.63477 497.11719 L 783.83008 498.76562 L 785.01562 501.05078 L 786.14648 504.25977 L 786.21094 505.40625 L 787.35742 507.76367 L 786.65625 512.35156 L 785.57422 517.83008 L 784.80859 520.82422 L 786.97461 517.51172 L 790.16016 512.16016 L 792.96484 506.68164 L 801.56445 499.92773 L 807.31641 496.22461 L 850.56445 448.29102 L 874.89648 419.71484 L 890.95312 403.15039 L 896.81445 396.26953 L 907.51758 389.38867 L 915.41797 374.86133 L 926.12109 364.66797 L 939.62891 357.02344 L 947.27344 348.86719 L 960.01562 336.63477 L 973.77734 326.69531 L 981.93359 321.08984 L 941.74805 301.96484 L 921.92578 296.91992 z ">
            <title></title>
        </path>
         <path id="188"
              class="area"
              d="m 369.34145,15.015649 c -8.35158,0.32068 -16.27318,1.67207 -22.6875,6.59375 l -10.09375,8.4375 25.23041,49.9187 c 3.80295,7.61304 9.13923,13.75884 15,20 l 81,83.000001 -23,28 8.92584,8.11255 -4.92584,7.88745 34.67584,26.0188 -5.6875,15 0,11.125 c -1.68961,6.28533 -6.98834,3.8562 -6.71875,18.125 -0.46493,3.61252 -2.79692,4.97472 -4.26959,8.7312 -0.72174,1.84101 -0.22508,3.97681 -1,6 -1.09518,2.85934 -1.63694,3.0395 -3,6 -2.27731,4.9462 -5.46791,12.65896 -7.26166,17.0188 l 47.09375,19.9375 9.96991,-10.31876 -4.17387,-6.07729 6.36021,-11.04145 16.8125,1.3125 1.03125,-19.6875 3.375,1.3125 c 1.91924,-10.82788 3.20852,-11.89157 4.40625,-11.65625 10.3665,-0.54239 12.40293,-5.42573 5.9375,-14.75 0.43237,-1.2937 -1.44276,-2.5813 4.15625,-3.875 12.83532,-2.7912 10.9976,-8.03352 6.46875,-13.71875 l 6.46875,-9.5625 25.09375,-2.59375 8,19.15625 c 8.01786,-2.8759 11.0892,-7.42174 9.59375,-13.46875 l -4.90625,-5.15625 2.3125,-8.8125 c 1.9171,-6.08163 4.90825,-11.45147 8.28125,-16.5625 l 10.34375,-15.53125 9.3125,-14.71875 23.5625,0.75 26.125,-20.9375 0.1875,-0.21875 c -0.16859,0.0692 -0.33121,0.1121 -0.5,0.1875 l -40.96875,-40.25 -10.96875,-13.1875 -13.1875,-40.250001 c -4.6954,-12.21572 -12.62099,-18.26378 -24.875,-16.09375 l -29,3.9375 -25.34375,0.34375 c -10.86392,-0.009 -25.29818,1.32863 -37.875,-7.9375 l -44.625,-38.0625 c -5.09014,-4.06063 -9.69052,-8.27887 -23.0625,-9.5 z">
            <title></title>
        </path>
        <path id="183"
              class="area"
              d="m 336.79061,29.965599 -35.64555,29.24734 -14.625,1.46875 -4.375,13.15625 -113.4376,97.343751 c -12.6297,12.13294 -14.2109,24.78961 -15.75,39.84375 l 1.4376,0.34375 23.8124,0 c 15.5426,-2.77644 39.6483,-9.10162 50.0313,-7.1875 l 47.25,19.09375 -7.7813,17.59375 79.1876,59.50001 11.375,-13.46875 37.2812,1.0625 43.1562,-60.87501 0.0831,-0.12234 5,-8 -9,-8 23,-28 -81,-83.000001 c -5.8608,-6.24116 -11.1972,-12.38696 -15,-20 z">
            <title></title>
        </path>
        <path id="185"
              class="area"
              d="m 155.94686,275.47053 c -5.61698,0.22766 -13.45979,8.33352 -19.65625,13.96875 -0.14501,-0.0671 -0.29242,-0.12093 -0.4375,-0.1875 l -4.78125,2.53125 -6.59375,-1.46875 -4.375,8.40625 0.34375,11.34375 -19.75,33.65625 2.9375,34.78125 -26.343748,37.3125 -1.84375,10.625 -20.125,17.9375 c -3.48747,5.56126 4.51581,11.17219 8.0625,13.875 l -2.9375,14.65625 -22.6875,32.5625 -1.8125,7.6875 -6.25,3.28125 -5.46875,13.53125 5.125,4.03125 3.65625,-8.03125 5.46875,1.09375 19.40625,-10.625 44.281248,-45.71875 -2.562498,7.3125 -0.28125,50.34375 c 0.27522,9.2814 2.098528,16.4826 5.749998,21.1875 l 36.21875,-20.125 10,-10 10,5 10,-10 5,5 15,-15 40,-10 c 8.63822,0.91465 13.97107,-8.08679 20,-15 l -12,-10 -6.5,-174.47368 -71,-5 c -0.44406,-4.54683 -0.0378,-8.78481 -1,-11 -1.27989,-2.94658 -2.6458,-3.58415 -4.84375,-3.49507 z">
            <title></title>
        </path>
        <path id="187"
              class="area"
              d="m 223.51193,203.81916 c -11.7824,-0.0337 -31.9627,5.10186 -45.5626,7.53125 l -23.8124,0 -0.5,-0.125 -2.9063,46.28125 -7.3437,18.3125 -4.375,0 -3.3126,6.21875 1.0313,6.75 c 6.087,-5.59304 13.5474,-13.12401 18.9687,-13.34375 2.1983,-0.0891 4.0639,1.02217 5.3438,3.96875 0.9622,2.21519 0.30338,6.00586 0.74748,10.55269 l 71,5 3.40872,91.2598 20.3438,8.71875 55,0 10,-6 26.24748,11.02145 28.75252,-48.02145 53,3 2,-1.46875 0,-3.53125 7.875,0 8.375,-13.90625 -2.5,-1.0625 c 1.7938,-4.35984 4.9727,-12.08505 7.25,-17.03125 1.3631,-2.9605 1.9048,-3.14066 3,-6 0.7749,-2.02319 0.2783,-4.15899 1,-6 1.4727,-3.75647 3.8164,-5.10622 4.2812,-8.71874 -0.2696,-14.2688 5.0292,-11.83967 6.7188,-18.125 l 0,-11.125 5.6875,-15 -34.6875,-26.03125 -0.094,0.125 -43.1562,60.875 -37.2812,-1.0625 -11.375,13.46875 -79.1876,-59.5 7.7813,-17.59375 -47.25,-19.09375 c -1.2979,-0.23927 -2.7857,-0.33894 -4.4687,-0.34375 z">
            <title></title>
        </path>
        <path id="186"
              class="area"
              d="m 376.35373,351.90073 -28.75,48.0312 -26.25,-11.0312 -10,6 h -55 l -20.09375,-8.625 2.84375,83.125 12,10 c -6.02893,6.913 -11.36178,15.9145 -20,15 l -40,10 -15,15 -5,-5 -10,10 -10,-5 -10,10 -36.15625,20.0937 c 0.79256,1.1096 1.16349,3.36213 2.14656,4.21173 l 30.87667,29.99243 c 4.48147,3.5876 9.9749,8.85811 10.09158,10.99031 l 6.14438,22.86803 c 2.45807,10.6429 0.24424,23.6296 -6.35294,31.125 l 32.49031,50.67346 16.25969,-24.42346 20,-25 c 18.79816,-22.72368 54.47216,-46.65277 82,-70 v -1 l -3,-6 c 2.57347,-9.19254 4.18688,-16.96633 11.18688,-27.96633 2.18688,-2.96633 1.18688,-8.96633 4,-13 l 5.81312,-8.03367 c 2.18688,-3.96633 1.34598,-6.96633 3.18688,-9.96633 l 7.81312,-13.03367 c 4.18688,-4.96633 -0.81312,-5.96633 2,-9 l 17,-16 c 3.18688,-2.96633 8.99859,-3.1629 10,-6 -0.0375,-4.98751 -1.27596,-9.57468 0,-15 l 8.5,-12.1562 c 2.73778,-3.09841 -2.31312,-11.81013 0.5,-13.8438 l 11,-12 c 1.18688,-2.96633 -1.81312,-4.96633 1.18688,-7.96633 l 22.81312,-15.03367 c 5.00207,-3.42283 11.18688,-6.96633 11,-13 -0.1505,-2.92463 0.29091,-4.31029 1,-5 l 9,-8 8,-11 -0.008,-1.96633 -0.24191,-0.0649 z">
            <title></title>
        </path>
        </g>
</svg>
